HIERARCHY
ROOT joint_Root
{
	OFFSET 0.0 0.0 0.0
	CHANNELS 6 Xposition Yposition Zposition Zrotation Xrotation Yrotation 
	JOINT Hips
	{
		OFFSET -17.1583 93.1646 452.98
		CHANNELS 6 Xposition Yposition Zposition Zrotation Xrotation Yrotation 
		JOINT Spine
		{
			OFFSET 15.7357 0.0 0.0
			CHANNELS 6 Xposition Yposition Zposition Zrotation Xrotation Yrotation 
			JOINT Chest
			{
				OFFSET 8.98455 -0.406207 0.0
				CHANNELS 6 Xposition Yposition Zposition Zrotation Xrotation Yrotation 
				JOINT Neck
				{
					OFFSET 16.3773 0.0 0.0
					CHANNELS 6 Xposition Yposition Zposition Zrotation Xrotation Yrotation 
					JOINT Head
					{
						OFFSET 6.45672 0.0 0.0
						CHANNELS 6 Xposition Yposition Zposition Zrotation Xrotation Yrotation 
						End Site
						{
							OFFSET 0.0 0.0 0.0
						}
					}
				}
				JOINT Shoulder_L
				{
					OFFSET 12.9942 -0.242716 4.98039
					CHANNELS 6 Xposition Yposition Zposition Zrotation Xrotation Yrotation 
					JOINT UpperArm_L
					{
						OFFSET 5.34809 0.0 0.0
						CHANNELS 6 Xposition Yposition Zposition Zrotation Xrotation Yrotation 
						JOINT LowerArm_L
						{
							OFFSET 24.3286 1.87007e-05 0.0
							CHANNELS 6 Xposition Yposition Zposition Zrotation Xrotation Yrotation 
							JOINT Hand_L
							{
								OFFSET 22.2916 0.0 0.0
								CHANNELS 6 Xposition Yposition Zposition Zrotation Xrotation Yrotation 
								End Site
								{
									OFFSET 0.0 0.0 0.0
								}
							}
						}
					}
				}
				JOINT Shoulder_R
				{
					OFFSET 12.9945 -0.242716 -4.98039
					CHANNELS 6 Xposition Yposition Zposition Zrotation Xrotation Yrotation 
					JOINT UpperArm_R
					{
						OFFSET -5.34813 0.0 0.0
						CHANNELS 6 Xposition Yposition Zposition Zrotation Xrotation Yrotation 
						JOINT LowerArm_R
						{
							OFFSET -24.3289 0.000322201 0.0
							CHANNELS 6 Xposition Yposition Zposition Zrotation Xrotation Yrotation 
							JOINT Hand_R
							{
								OFFSET -22.2915 -0.000108084 0.0
								CHANNELS 6 Xposition Yposition Zposition Zrotation Xrotation Yrotation 
								End Site
								{
									OFFSET 0.0 0.0 0.0
								}
							}
						}
					}
				}
			}
		}
		JOINT UpperLeg_L
		{
			OFFSET -2.19248 -6.46944 0.0
			CHANNELS 6 Xposition Yposition Zposition Zrotation Xrotation Yrotation 
			JOINT LowerLeg_L
			{
				OFFSET 39.0811 0.0 -1.23785e-05
				CHANNELS 6 Xposition Yposition Zposition Zrotation Xrotation Yrotation 
				JOINT Foot_L
				{
					OFFSET 40.9854 0.0 -1.26872e-05
					CHANNELS 6 Xposition Yposition Zposition Zrotation Xrotation Yrotation 
					JOINT Toes_L
					{
						OFFSET 11.7543 0.0 0.0
						CHANNELS 6 Xposition Yposition Zposition Zrotation Xrotation Yrotation 
						End Site
						{
							OFFSET 0.0 0.0 0.0
						}
					}
				}
			}
		}
		JOINT UpperLeg_R
		{
			OFFSET -2.19251 6.46944 0.0
			CHANNELS 6 Xposition Yposition Zposition Zrotation Xrotation Yrotation 
			JOINT LowerLeg_R
			{
				OFFSET -39.0811 -0.00228153 -0.0401928
				CHANNELS 6 Xposition Yposition Zposition Zrotation Xrotation Yrotation 
				JOINT Foot_R
				{
					OFFSET -40.9854 0.0 0.0
					CHANNELS 6 Xposition Yposition Zposition Zrotation Xrotation Yrotation 
					JOINT Toes_R
					{
						OFFSET -11.7543 0.0 0.0
						CHANNELS 6 Xposition Yposition Zposition Zrotation Xrotation Yrotation 
						End Site
						{
							OFFSET 0.0 0.0 0.0
						}
					}
				}
			}
		}
	}
}
MOTION
Frames:	8
Frame Time:	0.0333333
0.000000 0.000000 0.000000 0.000000 0.000000 -0.000000 -2.572400 93.247900 0.085644 87.795500 2.897460 -0.125628 15.735700 0.000005 -0.000001 69.386000 87.387200 -66.788500 8.984550 -0.406207 -0.000000 -2.823310 -2.078970 5.144710 16.377300 -0.000001 -0.000001 -3.361810 2.095790 -0.370655 6.456720 -0.000001 -0.000000 0.523734 3.129250 -3.666630 12.994200 -0.242716 4.980390 -91.553200 5.167560 -73.245400 5.348090 -0.000007 -0.000001 -70.301600 7.816750 -4.707040 24.328600 0.000019 0.000005 0.932246 23.631200 -2.327870 22.291600 -0.000001 0.000005 -19.206300 5.172400 3.374200 12.994500 -0.242716 -4.980390 89.011700 3.163720 -72.640400 -5.348130 -0.000001 -0.000004 -69.236800 -3.502550 -7.033200 -24.328900 0.000322 -0.000009 0.000610 -7.095350 -0.000044 -22.291500 -0.000108 -0.000004 -4.770050 4.957660 8.215400 -2.192480 -6.469440 -0.000000 -171.729000 -2.812860 -1.219890 39.081100 -0.000007 -0.000012 0.004204 -0.018450 12.838800 40.985400 -0.000006 -0.000013 -2.750700 13.249200 -67.906700 11.754300 -0.000000 0.000003 -0.000676 0.178324 -9.343440 -2.192510 6.469440 -0.000001 179.295000 9.886940 -179.430000 -39.081100 -0.002282 -0.040193 0.016733 -0.067544 11.218200 -40.985400 0.000008 0.000006 -4.660520 5.298790 -67.513500 -11.754300 -0.000006 -0.000006 -0.009977 0.271135 -5.557920
0.000000 0.000000 0.000000 0.000000 0.000000 -0.000000 -2.537970 93.305100 0.398781 87.768400 2.976470 -1.125700 15.735700 0.000005 -0.000001 63.839700 87.894000 -61.042000 8.984550 -0.406207 -0.000000 -3.928470 -2.141030 5.524970 16.377300 -0.000001 -0.000001 -4.159190 2.228620 -0.552194 6.456720 -0.000001 -0.000000 1.136680 3.136170 -4.716750 12.994200 -0.242716 4.980390 -91.596600 4.979750 -72.197600 5.348090 -0.000007 -0.000001 -64.724300 -2.984450 -5.312170 24.328600 0.000019 0.000005 0.307790 25.944900 -0.703729 22.291600 -0.000001 0.000005 -24.308500 5.174100 3.372990 12.994500 -0.242716 -4.980390 89.336700 2.028680 -71.884900 -5.348130 -0.000001 -0.000004 -67.060100 -15.093300 -6.365990 -24.328900 0.000322 -0.000009 -0.001164 -9.029050 -0.000053 -22.291500 -0.000108 -0.000004 -7.635970 4.888960 9.605030 -2.192480 -6.469440 -0.000000 -171.750000 -2.774850 -1.551180 39.081100 -0.000007 -0.000012 0.002898 -0.013735 11.915800 40.985400 -0.000006 -0.000013 -2.974940 13.148600 -67.787000 11.754300 -0.000000 0.000003 -0.001034 0.183518 -9.132380 -2.192510 6.469440 -0.000001 179.336000 10.323300 -179.603000 -39.081100 -0.002282 -0.040193 0.009058 -0.032614 9.945880 -40.985400 0.000008 0.000006 -5.357850 5.714470 -66.833100 -11.754300 -0.000006 -0.000006 -0.010065 0.271789 -5.531210
0.000000 0.000000 0.000000 0.000000 0.000000 -0.000000 -2.489170 93.375300 0.749352 87.844400 2.997200 -2.514830 15.735700 0.000005 -0.000001 54.292600 88.488800 -51.439100 8.984550 -0.406207 -0.000000 -5.255330 -2.085890 5.617050 16.377300 -0.000001 -0.000001 -5.429100 2.344400 -0.697113 6.456720 -0.000001 -0.000000 2.034470 3.110480 -5.521750 12.994200 -0.242716 4.980390 -91.529000 4.450290 -71.015400 5.348090 -0.000007 -0.000001 -58.069300 -15.176000 -6.144290 24.328600 0.000019 0.000005 0.039331 25.360400 -0.091470 22.291600 -0.000001 0.000005 -25.403000 5.109050 4.901160 12.994500 -0.242716 -4.980390 89.796800 0.601275 -71.316600 -5.348130 -0.000001 -0.000004 -63.695700 -26.856900 -4.707480 -24.328900 0.000322 -0.000009 -0.001811 -11.094100 -0.000064 -22.291500 -0.000108 -0.000004 -6.921770 4.753100 12.172700 -2.192480 -6.469440 -0.000000 -171.732000 -2.788890 -2.214680 39.081100 -0.000007 -0.000012 -0.013516 0.071027 10.773800 40.985400 -0.000006 -0.000013 -4.623500 13.275700 -66.720600 11.754300 -0.000000 0.000003 -0.000922 0.181924 -9.197160 -2.192510 6.469440 -0.000001 179.346000 10.452200 179.975000 -39.081100 -0.002282 -0.040193 0.004504 -0.007857 8.414140 -40.985400 0.000008 0.000006 -6.300540 5.907380 -66.035600 -11.754300 -0.000006 -0.000006 -0.009816 0.269928 -5.607320
0.000000 0.000000 0.000000 0.000000 0.000000 -0.000000 -2.430690 93.484100 1.063280 88.007600 2.988950 -4.084140 15.735700 0.000005 -0.000001 32.110000 89.059500 -29.347900 8.984550 -0.406207 -0.000000 -6.715500 -1.938900 5.419490 16.377300 -0.000001 -0.000001 -6.613300 2.443300 -0.889689 6.456720 -0.000001 -0.000000 2.702430 2.927490 -5.701760 12.994200 -0.242716 4.980390 -91.280200 3.501620 -69.899900 5.348090 -0.000007 -0.000001 -51.056700 -26.348000 -7.377200 24.328600 0.000019 0.000005 0.000135 21.341500 -0.000001 22.291600 -0.000001 0.000005 -22.295400 5.078220 5.595490 12.994500 -0.242716 -4.980390 90.330800 -0.956492 -70.926400 -5.348130 -0.000001 -0.000004 -58.740800 -37.229900 -2.419500 -24.328900 0.000322 -0.000009 -0.002349 -18.876700 -0.000105 -22.291500 -0.000108 -0.000004 -0.077424 4.707120 13.021100 -2.192480 -6.469440 -0.000000 -171.749000 -3.067210 -2.659540 39.081100 -0.000007 -0.000012 -0.022629 0.146748 8.765840 40.985400 -0.000006 -0.000013 -7.017090 13.593400 -64.997700 11.754300 -0.000000 0.000003 -0.001036 0.183545 -9.131260 -2.192510 6.469440 -0.000001 179.241000 10.489900 179.809000 -39.081100 -0.002282 -0.040193 0.003779 -0.004153 5.952530 -40.985400 0.000008 0.000006 -7.821240 6.025910 -64.650600 -11.754300 -0.000006 -0.000006 -0.010024 0.271484 -5.543650
0.000000 0.000000 0.000000 0.000000 0.000000 -0.000000 -2.362830 93.580600 1.429070 88.129300 2.901730 -5.349610 15.735700 0.000005 -0.000001 -12.706500 89.270900 15.323300 8.984550 -0.406207 -0.000000 -8.042830 -1.779200 5.120440 16.377300 -0.000001 -0.000001 -7.493130 2.483190 -1.015970 6.456720 -0.000001 -0.000000 3.097630 2.766900 -5.577050 12.994200 -0.242716 4.980390 -90.860600 2.229690 -68.883400 5.348090 -0.000007 -0.000001 -44.204000 -36.132700 -9.164690 24.328600 0.000019 0.000005 0.000011 16.212800 -0.000001 22.291600 -0.000001 0.000005 -16.497400 5.025350 6.728610 12.994500 -0.242716 -4.980390 90.916800 -2.614310 -70.669500 -5.348130 -0.000001 -0.000004 -52.334400 -46.962000 -0.111101 -24.328900 0.000322 -0.000009 -0.002219 -27.338100 -0.000155 -22.291500 -0.000108 -0.000004 12.643600 4.767110 12.005400 -2.192480 -6.469440 -0.000000 -171.738000 -3.679670 -2.265740 39.081100 -0.000007 -0.000012 -0.015514 0.152130 5.822390 40.985400 -0.000006 -0.000013 -9.318810 14.088600 -62.765300 11.754300 -0.000000 0.000003 -0.001005 0.183101 -9.149300 -2.192510 6.469440 -0.000001 179.160000 10.561500 -179.991000 -39.081100 -0.002282 -0.040193 0.005572 -0.037371 3.402420 -40.985400 0.000008 0.000006 -8.931510 6.156220 -63.125200 -11.754300 -0.000006 -0.000006 -0.010146 0.272396 -5.506350
0.000000 0.000000 0.000000 0.000000 0.000000 -0.000000 -2.251810 93.696300 1.822040 88.340300 2.821300 -6.243120 15.735700 0.000005 -0.000001 -48.974800 89.023600 51.401800 8.984550 -0.406207 -0.000000 -9.201920 -1.635920 4.736220 16.377300 -0.000001 -0.000001 -7.878690 2.336540 -1.209990 6.456720 -0.000001 -0.000000 3.172150 2.537630 -5.352560 12.994200 -0.242716 4.980390 -90.267400 0.666407 -68.122900 5.348090 -0.000007 -0.000001 -37.442200 -42.574400 -11.272100 24.328600 0.000019 0.000005 -0.000038 11.513300 -0.000000 22.291600 -0.000001 0.000005 -9.046570 4.889970 9.494970 12.994500 -0.242716 -4.980390 91.628300 -4.508670 -70.121100 -5.348130 -0.000001 -0.000004 -45.220100 -55.157600 1.191400 -24.328900 0.000322 -0.000009 -0.001118 -33.990100 -0.000200 -22.291500 -0.000108 -0.000004 24.645800 4.814370 11.035700 -2.192480 -6.469440 -0.000000 -171.897000 -4.259250 -0.001429 39.081100 -0.000007 -0.000012 -0.000001 -0.006968 0.000002 40.985400 -0.000006 -0.000013 -11.547400 14.270500 -58.996900 11.754300 -0.000000 0.000003 -0.000834 0.180644 -9.249170 -2.192510 6.469440 -0.000001 178.977000 10.923400 179.871000 -39.081100 -0.002282 -0.040193 0.005545 -0.053810 2.334570 -40.985400 0.000008 0.000006 -9.146180 6.504770 -62.401800 -11.754300 -0.000006 -0.000006 -0.010451 0.274642 -5.414490
0.000000 0.000000 0.000000 0.000000 0.000000 -0.000000 -2.134520 93.808300 2.175170 88.547300 2.709360 -6.861300 15.735700 0.000005 -0.000001 -62.947900 88.694200 65.163300 8.984550 -0.406207 -0.000000 -10.060400 -1.526600 4.311160 16.377300 -0.000001 -0.000001 -8.220660 2.073310 -1.246790 6.456720 -0.000001 -0.000000 3.064850 2.552520 -5.172520 12.994200 -0.242716 4.980390 -89.586300 -1.000770 -67.549600 5.348090 -0.000007 -0.000001 -31.021900 -47.584300 -13.638900 24.328600 0.000019 0.000005 0.000083 7.805630 -0.000000 22.291600 -0.000001 0.000005 -0.566263 4.702820 13.032000 12.994500 -0.242716 -4.980390 92.518800 -6.629620 -69.144700 -5.348130 -0.000001 -0.000004 -39.366600 -61.387200 0.217711 -24.328900 0.000322 -0.000009 -0.001037 -37.053900 -0.000224 -22.291500 -0.000108 -0.000004 31.940900 4.768440 11.898400 -2.192480 -6.469440 -0.000000 -172.223000 -4.604040 -0.437797 39.081100 -0.000007 -0.000012 -0.000001 -0.014439 0.000000 40.985400 -0.000006 -0.000013 -11.656700 14.440400 -58.457300 11.754300 -0.000000 0.000003 -0.000541 0.176277 -9.426590 -2.192510 6.469440 -0.000001 178.741000 11.284300 179.694000 -39.081100 -0.002282 -0.040193 0.005567 -0.070344 1.803380 -40.985400 0.000008 0.000006 -9.417040 6.922670 -61.778400 -11.754300 -0.000006 -0.000006 -0.010065 0.271792 -5.531060
0.000000 0.000000 0.000000 0.000000 0.000000 -0.000000 -2.025390 93.927300 2.444330 88.571800 2.407000 -7.197790 15.735700 0.000005 -0.000001 -68.382100 88.432900 70.479100 8.984550 -0.406207 -0.000000 -10.651000 -1.485340 4.070920 16.377300 -0.000001 -0.000001 -8.426120 1.998800 -1.283570 6.456720 -0.000001 -0.000000 2.877770 2.772920 -5.167970 12.994200 -0.242716 4.980390 -88.829600 -2.706910 -66.612300 5.348090 -0.000007 -0.000001 -27.387400 -54.714300 -18.185300 24.328600 0.000019 0.000005 0.000085 5.039380 0.000000 22.291600 -0.000001 0.000005 8.657300 4.563830 15.502000 12.994500 -0.242716 -4.980390 93.578700 -8.863970 -67.910700 -5.348130 -0.000001 -0.000004 -36.836700 -66.024000 -4.526340 -24.328900 0.000322 -0.000009 -0.001105 -39.013200 -0.000240 -22.291500 -0.000108 -0.000004 34.841800 4.701270 13.126700 -2.192480 -6.469440 -0.000000 -172.385000 -5.004650 -0.585962 39.081100 -0.000007 -0.000012 -0.000001 -0.025076 0.000002 40.985400 -0.000006 -0.000013 -11.474100 14.464600 -58.106600 11.754300 -0.000000 0.000003 -0.000380 0.173796 -9.527380 -2.192510 6.469440 -0.000001 178.638000 11.312800 179.375000 -39.081100 -0.002282 -0.040193 0.005926 -0.076457 1.928250 -40.985400 0.000008 0.000006 -9.613390 7.207010 -61.334100 -11.754300 -0.000006 -0.000006 -0.009495 0.267494 -5.706830
